<mxfile host="app.diagrams.net" agent="Mozilla/5.0 (Windows NT 10.0; Win64; x64) AppleWebKit/537.36 (KHTML, like Gecko) Chrome/136.0.0.0 Safari/537.36" version="27.0.9">
  <diagram name="Page-1" id="YjfDYSAni3ohlUiW1IaJ">
    <mxGraphModel dx="1439" dy="806" grid="1" gridSize="10" guides="1" tooltips="1" connect="1" arrows="1" fold="1" page="1" pageScale="1" pageWidth="827" pageHeight="583" math="0" shadow="0">
      <root>
        <mxCell id="0" />
        <mxCell id="1" parent="0" />
        <mxCell id="ijcw4CLRvwiuMin02ovJ-13" value="" style="rounded=0;whiteSpace=wrap;html=1;fillColor=none;" parent="1" vertex="1">
          <mxGeometry x="315" y="347" width="360" height="190" as="geometry" />
        </mxCell>
        <mxCell id="ijcw4CLRvwiuMin02ovJ-9" value="" style="rounded=0;whiteSpace=wrap;html=1;fillColor=none;" parent="1" vertex="1">
          <mxGeometry x="315" y="28" width="485" height="190" as="geometry" />
        </mxCell>
        <mxCell id="ijcw4CLRvwiuMin02ovJ-2" value="" style="sketch=0;pointerEvents=1;shadow=0;dashed=0;html=1;strokeColor=none;fillColor=#434445;aspect=fixed;labelPosition=center;verticalLabelPosition=bottom;verticalAlign=top;align=center;outlineConnect=0;shape=mxgraph.vvd.cpu;" parent="1" vertex="1">
          <mxGeometry x="340" y="83" width="50" height="50" as="geometry" />
        </mxCell>
        <mxCell id="ijcw4CLRvwiuMin02ovJ-3" value="Core 1" style="text;html=1;align=center;verticalAlign=middle;resizable=0;points=[];autosize=1;strokeColor=none;fillColor=none;" parent="1" vertex="1">
          <mxGeometry x="335" y="143" width="60" height="30" as="geometry" />
        </mxCell>
        <mxCell id="ijcw4CLRvwiuMin02ovJ-4" value="" style="sketch=0;pointerEvents=1;shadow=0;dashed=0;html=1;strokeColor=none;fillColor=#434445;aspect=fixed;labelPosition=center;verticalLabelPosition=bottom;verticalAlign=top;align=center;outlineConnect=0;shape=mxgraph.vvd.cpu;" parent="1" vertex="1">
          <mxGeometry x="340" y="387" width="50" height="50" as="geometry" />
        </mxCell>
        <mxCell id="ijcw4CLRvwiuMin02ovJ-5" value="Core 0" style="text;html=1;align=center;verticalAlign=middle;resizable=0;points=[];autosize=1;strokeColor=none;fillColor=none;" parent="1" vertex="1">
          <mxGeometry x="335" y="447" width="60" height="30" as="geometry" />
        </mxCell>
        <mxCell id="ijcw4CLRvwiuMin02ovJ-6" value="Ultra Sonic &lt;br&gt;Reading Task" style="rounded=1;whiteSpace=wrap;html=1;rotation=90;" parent="1" vertex="1">
          <mxGeometry x="395" y="98" width="120" height="60" as="geometry" />
        </mxCell>
        <mxCell id="ijcw4CLRvwiuMin02ovJ-7" value="Laser Reading Task" style="rounded=1;whiteSpace=wrap;html=1;rotation=90;" parent="1" vertex="1">
          <mxGeometry x="475" y="98" width="120" height="60" as="geometry" />
        </mxCell>
        <mxCell id="ijcw4CLRvwiuMin02ovJ-8" value="WIFI MQTT TASK" style="rounded=1;whiteSpace=wrap;html=1;rotation=90;" parent="1" vertex="1">
          <mxGeometry x="555" y="98" width="120" height="60" as="geometry" />
        </mxCell>
        <mxCell id="ijcw4CLRvwiuMin02ovJ-10" value="System Task Orchastration" style="rounded=1;whiteSpace=wrap;html=1;rotation=90;" parent="1" vertex="1">
          <mxGeometry x="395" y="407" width="120" height="60" as="geometry" />
        </mxCell>
        <mxCell id="ijcw4CLRvwiuMin02ovJ-23" style="edgeStyle=orthogonalEdgeStyle;rounded=0;orthogonalLoop=1;jettySize=auto;html=1;exitX=1;exitY=0.25;exitDx=0;exitDy=0;entryX=1;entryY=0.5;entryDx=0;entryDy=0;" parent="1" source="ijcw4CLRvwiuMin02ovJ-11" target="ijcw4CLRvwiuMin02ovJ-10" edge="1">
          <mxGeometry relative="1" as="geometry" />
        </mxCell>
        <mxCell id="ijcw4CLRvwiuMin02ovJ-11" value="Processing Task" style="rounded=1;whiteSpace=wrap;html=1;rotation=90;" parent="1" vertex="1">
          <mxGeometry x="475" y="407" width="120" height="60" as="geometry" />
        </mxCell>
        <mxCell id="ijcw4CLRvwiuMin02ovJ-12" value="Deep Sleep Task" style="rounded=1;whiteSpace=wrap;html=1;rotation=90;" parent="1" vertex="1">
          <mxGeometry x="555" y="407" width="120" height="60" as="geometry" />
        </mxCell>
        <mxCell id="ijcw4CLRvwiuMin02ovJ-14" value="" style="endArrow=classic;html=1;rounded=0;exitX=0;exitY=0.5;exitDx=0;exitDy=0;entryX=1;entryY=0.5;entryDx=0;entryDy=0;" parent="1" source="ijcw4CLRvwiuMin02ovJ-10" target="ijcw4CLRvwiuMin02ovJ-6" edge="1">
          <mxGeometry width="50" height="50" relative="1" as="geometry">
            <mxPoint x="715" y="348" as="sourcePoint" />
            <mxPoint x="765" y="298" as="targetPoint" />
          </mxGeometry>
        </mxCell>
        <mxCell id="ijcw4CLRvwiuMin02ovJ-15" value="" style="endArrow=classic;html=1;rounded=0;entryX=1;entryY=0.5;entryDx=0;entryDy=0;" parent="1" target="ijcw4CLRvwiuMin02ovJ-7" edge="1">
          <mxGeometry width="50" height="50" relative="1" as="geometry">
            <mxPoint x="455" y="338" as="sourcePoint" />
            <mxPoint x="465" y="198" as="targetPoint" />
            <Array as="points">
              <mxPoint x="455" y="268" />
              <mxPoint x="455" y="238" />
              <mxPoint x="535" y="238" />
            </Array>
          </mxGeometry>
        </mxCell>
        <mxCell id="ijcw4CLRvwiuMin02ovJ-17" value="Notify Tasks to&lt;br&gt;&amp;nbsp;start sampling" style="text;html=1;align=center;verticalAlign=middle;resizable=0;points=[];autosize=1;strokeColor=none;fillColor=none;" parent="1" vertex="1">
          <mxGeometry x="364" y="307" width="100" height="40" as="geometry" />
        </mxCell>
        <mxCell id="ijcw4CLRvwiuMin02ovJ-18" value="Laser Reading Queue" style="rounded=0;whiteSpace=wrap;html=1;" parent="1" vertex="1">
          <mxGeometry x="205" y="238" width="110" height="30" as="geometry" />
        </mxCell>
        <mxCell id="ijcw4CLRvwiuMin02ovJ-19" value="Ultrasonic Reading Queue" style="rounded=0;whiteSpace=wrap;html=1;" parent="1" vertex="1">
          <mxGeometry x="80" y="238" width="110" height="30" as="geometry" />
        </mxCell>
        <mxCell id="ijcw4CLRvwiuMin02ovJ-24" value="When all spots have been processed &lt;br&gt;notify system task" style="text;html=1;align=center;verticalAlign=middle;resizable=0;points=[];autosize=1;strokeColor=none;fillColor=none;" parent="1" vertex="1">
          <mxGeometry x="390" y="543" width="220" height="40" as="geometry" />
        </mxCell>
        <mxCell id="ijcw4CLRvwiuMin02ovJ-26" value="" style="endArrow=classic;html=1;rounded=0;exitX=0.5;exitY=1;exitDx=0;exitDy=0;entryX=0;entryY=0.5;entryDx=0;entryDy=0;" parent="1" source="ijcw4CLRvwiuMin02ovJ-18" target="ijcw4CLRvwiuMin02ovJ-11" edge="1">
          <mxGeometry width="50" height="50" relative="1" as="geometry">
            <mxPoint x="515" y="338" as="sourcePoint" />
            <mxPoint x="565" y="288" as="targetPoint" />
            <Array as="points">
              <mxPoint x="260" y="288" />
              <mxPoint x="535" y="288" />
            </Array>
          </mxGeometry>
        </mxCell>
        <mxCell id="ijcw4CLRvwiuMin02ovJ-27" value="" style="endArrow=classic;html=1;rounded=0;exitX=0.5;exitY=1;exitDx=0;exitDy=0;entryX=0;entryY=0.5;entryDx=0;entryDy=0;" parent="1" source="ijcw4CLRvwiuMin02ovJ-19" target="ijcw4CLRvwiuMin02ovJ-11" edge="1">
          <mxGeometry width="50" height="50" relative="1" as="geometry">
            <mxPoint x="415" y="308" as="sourcePoint" />
            <mxPoint x="465" y="258" as="targetPoint" />
            <Array as="points">
              <mxPoint x="135" y="288" />
              <mxPoint x="535" y="288" />
            </Array>
          </mxGeometry>
        </mxCell>
        <mxCell id="ijcw4CLRvwiuMin02ovJ-28" value="" style="endArrow=classic;html=1;rounded=0;exitX=0;exitY=0.5;exitDx=0;exitDy=0;entryX=0.5;entryY=0;entryDx=0;entryDy=0;" parent="1" source="ijcw4CLRvwiuMin02ovJ-6" target="ijcw4CLRvwiuMin02ovJ-19" edge="1">
          <mxGeometry width="50" height="50" relative="1" as="geometry">
            <mxPoint x="415" y="228" as="sourcePoint" />
            <mxPoint x="465" y="178" as="targetPoint" />
            <Array as="points">
              <mxPoint x="455" y="8" />
              <mxPoint x="135" y="8" />
            </Array>
          </mxGeometry>
        </mxCell>
        <mxCell id="ijcw4CLRvwiuMin02ovJ-29" value="" style="endArrow=classic;html=1;rounded=0;exitX=0;exitY=0.5;exitDx=0;exitDy=0;entryX=0.5;entryY=0;entryDx=0;entryDy=0;" parent="1" source="ijcw4CLRvwiuMin02ovJ-7" target="ijcw4CLRvwiuMin02ovJ-18" edge="1">
          <mxGeometry width="50" height="50" relative="1" as="geometry">
            <mxPoint x="415" y="228" as="sourcePoint" />
            <mxPoint x="465" y="178" as="targetPoint" />
            <Array as="points">
              <mxPoint x="535" y="8" />
              <mxPoint x="260" y="8" />
            </Array>
          </mxGeometry>
        </mxCell>
        <mxCell id="ijcw4CLRvwiuMin02ovJ-30" value="" style="endArrow=classic;html=1;rounded=0;exitX=0;exitY=0.25;exitDx=0;exitDy=0;entryX=1;entryY=0.5;entryDx=0;entryDy=0;" parent="1" source="ijcw4CLRvwiuMin02ovJ-11" target="ijcw4CLRvwiuMin02ovJ-8" edge="1">
          <mxGeometry width="50" height="50" relative="1" as="geometry">
            <mxPoint x="515" y="368" as="sourcePoint" />
            <mxPoint x="565" y="318" as="targetPoint" />
            <Array as="points">
              <mxPoint x="550" y="288" />
              <mxPoint x="615" y="288" />
            </Array>
          </mxGeometry>
        </mxCell>
        <mxCell id="BV09fPFT3irEw3dTANne-1" value="Encrypt Data - AES" style="rounded=1;whiteSpace=wrap;html=1;" parent="1" vertex="1">
          <mxGeometry x="670" y="93" width="110" height="30" as="geometry" />
        </mxCell>
      </root>
    </mxGraphModel>
  </diagram>
</mxfile>
